<?xml version="1.0" encoding="UTF-8"?>
<svg xmlns="http://www.w3.org/2000/svg" xmlns:xlink="http://www.w3.org/1999/xlink" width="193pt" height="193pt" viewBox="0 0 193 193" version="1.1">
<g id="surface1">
<path style=" stroke:none;fill-rule:evenodd;fill:rgb(100%,100%,100%);fill-opacity:1;" d="M 0 0.242188 L 192.757813 0.242188 L 192.757813 193 L 0 193 L 0 0.242188 "/>
<path style=" stroke:none;fill-rule:evenodd;fill:rgb(0%,28.999329%,56.098938%);fill-opacity:1;" d="M 86.457031 60.742188 L 91.105469 55.0625 L 91.105469 11.59375 L 89.660156 11.699219 L 83.050781 19.339844 L 81.605469 17.585938 C 81.089844 16.757813 80.78125 16.34375 80.054688 15.726563 C 79.335938 15.105469 78.921875 14.691406 77.992188 14.28125 C 76.855469 13.765625 76.132813 13.765625 74.996094 13.660156 C 73.859375 13.660156 73.140625 13.660156 72.003906 13.96875 C 70.867188 14.28125 70.246094 14.589844 69.320313 15.3125 C 68.183594 16.242188 67.769531 17.066406 67.046875 18.308594 C 65.910156 20.269531 65.292969 21.507813 65.085938 23.882813 C 65.085938 24.914063 65.085938 25.636719 65.292969 26.671875 C 65.496094 27.804688 65.703125 28.320313 66.117188 29.355469 C 66.738281 30.695313 67.355469 31.316406 68.078125 32.554688 C 68.800781 33.589844 69.113281 34.207031 69.9375 35.238281 C 70.351563 35.757813 70.96875 35.960938 71.074219 36.683594 C 71.175781 37.511719 70.765625 37.925781 70.246094 38.441406 C 69.628906 39.058594 68.90625 38.75 68.390625 39.371094 C 67.976563 39.988281 67.871094 40.402344 67.769531 41.226563 C 67.667969 42.261719 67.769531 42.984375 68.390625 43.914063 C 69.007813 44.738281 69.523438 44.945313 70.453125 45.359375 C 71.695313 45.875 72.519531 45.976563 73.757813 45.667969 C 74.6875 45.460938 75.101563 45.152344 75.925781 44.636719 C 76.753906 44.015625 77.164063 43.601563 77.679688 42.675781 C 78.40625 41.433594 78.507813 40.609375 78.40625 39.265625 C 78.300781 38.027344 78.09375 37.40625 77.371094 36.375 C 76.855469 35.757813 76.441406 35.550781 75.925781 34.929688 C 75.308594 34.207031 74.996094 33.796875 74.378906 33.070313 C 73.550781 32.039063 72.828125 31.625 72.3125 30.386719 C 71.796875 29.25 71.589844 28.425781 71.695313 27.082031 C 71.796875 26.257813 71.796875 25.742188 72.3125 25.019531 C 72.828125 24.296875 73.242188 23.882813 74.066406 23.570313 C 74.894531 23.261719 75.308594 23.160156 76.132813 23.261719 C 77.164063 23.261719 77.679688 23.46875 78.609375 23.882813 C 79.4375 24.191406 79.953125 24.503906 80.675781 25.019531 L 81.707031 26.980469 L 81.707031 55.683594 L 86.457031 60.742188 "/>
<path style=" stroke:none;fill-rule:evenodd;fill:rgb(0%,28.999329%,56.098938%);fill-opacity:1;" d="M 68.90625 95.746094 L 73.757813 90.683594 L 73.757813 57.335938 C 73.140625 55.269531 72.519531 54.03125 71.074219 52.378906 C 70.453125 51.65625 70.042969 51.242188 69.320313 50.625 C 68.285156 49.796875 67.5625 49.386719 66.324219 48.972656 C 64.878906 48.457031 63.949219 48.558594 62.402344 48.351563 C 61.367188 48.25 60.75 48.042969 59.714844 48.042969 C 57.753906 48.144531 56.515625 48.660156 54.761719 49.695313 C 53.417969 50.519531 52.796875 51.140625 51.664063 52.277344 C 50.628906 53.308594 50.113281 53.929688 49.390625 55.269531 C 48.667969 56.613281 48.460938 57.542969 48.046875 59.089844 C 47.636719 60.949219 47.328125 62.085938 47.429688 63.941406 C 47.636719 65.90625 48.152344 66.9375 48.976563 68.691406 C 49.390625 69.621094 49.597656 70.140625 50.113281 70.964844 C 51.042969 72.203125 51.664063 72.824219 52.902344 73.753906 C 53.726563 74.578125 54.242188 74.992188 55.277344 75.609375 C 55.792969 75.921875 56.101563 76.023438 56.617188 76.332031 C 57.445313 76.746094 57.859375 77.160156 58.785156 77.367188 C 60.027344 77.675781 60.851563 77.570313 61.988281 77.261719 L 61.988281 68.691406 C 60.542969 68.589844 59.714844 68.28125 58.582031 67.453125 C 56.824219 66.421875 55.894531 65.285156 55.585938 63.324219 C 55.378906 62.394531 55.277344 61.773438 55.585938 60.949219 C 55.792969 60.121094 55.894531 59.710938 56.410156 59.089844 C 57.03125 58.472656 57.445313 58.160156 58.269531 57.953125 C 59.304688 57.542969 60.128906 57.542969 61.265625 57.953125 C 63.019531 58.472656 64.050781 59.605469 64.570313 61.363281 L 64.570313 91.097656 L 68.90625 95.746094 "/>
<path style=" stroke:none;fill-rule:evenodd;fill:rgb(0%,28.999329%,56.098938%);fill-opacity:1;" d="M 66.015625 115.363281 L 74.066406 115.363281 L 74.066406 107 L 54.039063 84.800781 C 49.804688 82.425781 45.777344 82.425781 41.542969 84.800781 C 39.582031 85.9375 38.757813 86.863281 37.414063 88.515625 C 36.382813 89.652344 35.863281 90.375 35.246094 91.71875 C 34.417969 93.371094 34.007813 94.402344 33.699219 96.15625 C 33.492188 97.707031 33.492188 98.636719 33.699219 100.082031 C 33.902344 101.113281 34.007813 101.734375 34.316406 102.765625 C 34.730469 104.210938 34.832031 105.035156 35.453125 106.277344 C 36.484375 108.546875 37.414063 109.683594 39.375 111.128906 C 40.410156 111.851563 41.027344 112.160156 42.058594 112.675781 C 45.261719 113.917969 47.53125 114.019531 50.835938 112.988281 C 54.449219 111.957031 55.691406 111.128906 58.582031 107.207031 L 53.109375 101.941406 C 51.664063 103.796875 50.113281 104.625 47.738281 104.832031 C 46.601563 105.035156 45.777344 105.140625 44.746094 104.625 C 43.917969 104.109375 43.507813 103.589844 42.988281 102.765625 C 42.371094 101.835938 42.265625 101.21875 42.058594 100.082031 C 41.855469 98.53125 41.957031 97.5 42.679688 96.054688 C 43.300781 95.023438 43.710938 94.402344 44.746094 93.78125 C 46.601563 92.75 48.359375 92.75 50.113281 93.78125 L 66.015625 109.992188 L 66.015625 115.363281 "/>
<path style=" stroke:none;fill-rule:evenodd;fill:rgb(0%,28.999329%,56.098938%);fill-opacity:1;" d="M 86.769531 130.128906 L 92.136719 124.65625 L 87.285156 119.183594 L 56.929688 119.183594 C 53.832031 120.628906 52.386719 121.96875 50.421875 124.964844 C 48.460938 127.957031 48.152344 130.230469 48.046875 133.84375 C 48.046875 135.289063 48.046875 136.117188 48.359375 137.457031 C 48.667969 139.109375 48.976563 140.039063 49.90625 141.382813 C 50.734375 142.621094 51.457031 143.136719 52.59375 144.066406 C 54.863281 145.925781 56.308594 147.058594 59.097656 147.679688 C 61.472656 148.09375 62.917969 147.988281 65.085938 147.371094 C 68.699219 146.335938 70.867188 144.789063 72.933594 141.691406 C 73.757813 140.246094 74.378906 139.316406 74.585938 137.769531 C 74.996094 133.742188 75.71875 134.152344 74.996094 131.160156 L 66.945313 131.160156 C 67.152344 133.328125 66.839844 134.773438 65.703125 136.527344 C 65.292969 137.25 65.085938 137.5625 64.570313 138.078125 C 62.605469 139.625 60.335938 139.625 58.269531 138.386719 C 57.339844 137.871094 56.824219 137.355469 56.308594 136.425781 C 55.171875 134.464844 55.378906 132.605469 56.410156 130.644531 C 56.929688 129.609375 57.339844 129.199219 58.269531 128.476563 L 84.597656 128.476563 L 86.769531 130.128906 "/>
<path style=" stroke:none;fill-rule:evenodd;fill:rgb(0%,28.999329%,56.098938%);fill-opacity:1;" d="M 111.753906 118.976563 L 101.945313 118.976563 L 82.429688 141.382813 C 81.089844 145.203125 81.398438 147.164063 82.121094 151.808594 C 82.429688 153.359375 83.050781 154.183594 83.773438 155.527344 C 84.496094 156.765625 84.804688 157.589844 85.734375 158.519531 C 86.769531 159.554688 87.492188 159.863281 88.730469 160.484375 C 90.175781 161.207031 91 161.617188 92.652344 162.03125 C 94.820313 162.445313 96.164063 162.445313 98.332031 162.03125 C 99.984375 161.617188 101.015625 161.410156 102.460938 160.484375 C 103.90625 159.65625 104.421875 158.832031 105.457031 157.488281 C 106.386719 156.457031 107.003906 155.835938 107.625 154.492188 C 108.039063 153.566406 108.039063 152.84375 108.140625 151.808594 C 108.761719 147.988281 109.378906 145.511719 107.832031 142 C 106.902344 139.523438 105.664063 137.871094 103.390625 136.117188 L 98.640625 141.691406 C 99.570313 142.722656 99.984375 143.445313 100.398438 144.789063 C 100.914063 146.335938 101.121094 147.265625 100.808594 148.816406 C 100.601563 150.261719 100.191406 151.085938 99.15625 152.117188 C 98.125 153.359375 97.195313 154.082031 95.648438 154.183594 C 94.820313 154.289063 94.304688 154.183594 93.480469 153.875 C 92.445313 153.460938 91.828125 152.945313 91.105469 152.015625 C 90.070313 150.570313 90.070313 150.363281 89.660156 147.679688 L 105.765625 127.753906 L 111.753906 127.753906 L 111.753906 118.976563 "/>
<path style=" stroke:none;fill-rule:evenodd;fill:rgb(0%,28.999329%,56.098938%);fill-opacity:1;" d="M 121.355469 100.289063 L 127.140625 106.484375 L 123.316406 110.40625 L 123.113281 133.429688 C 123.316406 136.21875 125.175781 138.285156 127.964844 138.695313 C 129.824219 139.007813 131.371094 138.59375 132.714844 137.148438 C 133.335938 136.527344 133.644531 136.011719 133.851563 135.082031 C 134.160156 134.152344 134.261719 133.636719 134.160156 132.707031 C 134.054688 131.367188 133.851563 130.4375 133.023438 129.40625 C 131.371094 127.441406 128.996094 126.925781 126.726563 127.855469 L 126.726563 120.421875 C 131.0625 118.976563 133.128906 118.769531 136.328125 120.730469 C 137.464844 121.453125 138.082031 122.074219 139.011719 123.105469 C 140.972656 125.273438 141.800781 126.925781 142.523438 129.714844 C 143.246094 132.296875 143.347656 133.949219 142.832031 136.527344 C 142.421875 138.695313 142.007813 139.933594 140.769531 141.691406 C 139.632813 143.34375 138.601563 144.066406 136.84375 145.203125 C 136.019531 145.925781 135.503906 146.335938 134.46875 146.75 C 133.230469 147.371094 132.300781 147.472656 130.855469 147.679688 C 127.550781 148.09375 125.175781 147.886719 122.285156 146.132813 C 120.839844 145.304688 120.015625 144.683594 118.980469 143.445313 C 117.949219 142.414063 117.535156 141.691406 116.8125 140.453125 L 115.160156 137.355469 L 115.160156 106.6875 L 121.355469 100.289063 "/>
<path style=" stroke:none;fill-rule:evenodd;fill:rgb(0%,28.999329%,56.098938%);fill-opacity:1;" d="M 156.667969 93.472656 C 155.738281 90.683594 155.015625 89.136719 153.054688 86.96875 C 152.125 85.9375 151.507813 85.316406 150.371094 84.59375 C 149.339844 83.972656 148.71875 83.769531 147.6875 83.355469 C 146.445313 82.941406 145.621094 82.734375 144.382813 82.425781 C 143.039063 82.527344 142.316406 82.632813 141.078125 82.734375 C 139.21875 83.046875 138.082031 82.941406 136.328125 83.664063 C 133.953125 84.59375 132.609375 85.730469 131.164063 87.796875 L 137.464844 94.402344 C 139.011719 93.472656 139.941406 93.058594 141.695313 92.648438 C 142.625 92.441406 143.144531 92.335938 144.070313 92.335938 L 146.035156 93.265625 L 147.6875 95.332031 L 148.203125 98.015625 L 147.6875 100.390625 L 146.136719 102.144531 L 143.453125 102.765625 L 141.078125 102.457031 L 123.730469 85.421875 L 123.421875 79.328125 L 114.335938 79.328125 L 114.4375 88.3125 L 135.398438 110.300781 C 136.945313 110.921875 137.878906 111.230469 139.527344 111.644531 C 142.214844 112.160156 143.863281 112.367188 146.445313 111.75 C 148.40625 111.335938 149.441406 110.820313 151.09375 109.683594 C 152.023438 108.855469 152.539063 108.445313 153.363281 107.617188 C 154.191406 106.6875 154.707031 106.171875 155.429688 105.140625 C 156.566406 103.386719 157.082031 102.25 157.390625 100.082031 C 157.492188 97.5 157.390625 95.953125 156.667969 93.472656 "/>
<path style=" stroke:none;fill-rule:evenodd;fill:rgb(0%,28.999329%,56.098938%);fill-opacity:1;" d="M 97.09375 70.34375 L 102.667969 75.921875 L 131.785156 75.921875 C 133.539063 75.300781 134.574219 74.886719 136.019531 73.753906 C 137.878906 72.410156 138.703125 71.273438 139.839844 69.3125 C 140.871094 67.660156 141.285156 66.628906 141.695313 64.769531 C 142.214844 62.289063 142.007813 60.742188 141.386719 58.265625 C 140.871094 56.40625 140.253906 55.375 139.320313 53.722656 C 138.289063 52.277344 137.773438 51.347656 136.429688 50.109375 C 134.882813 48.867188 133.746094 48.25 131.785156 47.734375 C 129.308594 47.113281 127.757813 47.21875 125.175781 47.734375 C 122.90625 48.25 121.460938 48.765625 119.496094 50.109375 C 117.226563 51.863281 116.296875 53.722656 115.058594 55.785156 C 113.613281 58.472656 114.027344 59.605469 114.128906 63.632813 L 122.390625 63.632813 L 122.492188 60.121094 C 123.007813 58.78125 123.730469 57.128906 125.382813 56.304688 C 127.757813 55.167969 130.03125 56.097656 131.785156 58.058594 C 132.507813 58.882813 132.921875 59.398438 133.128906 60.433594 C 133.539063 61.980469 133.230469 63.015625 132.402344 64.355469 C 131.785156 65.492188 131.164063 66.007813 130.03125 66.628906 L 107.003906 66.628906 L 103.390625 63.738281 L 97.09375 70.34375 "/>
<path style=" stroke:none;fill-rule:evenodd;fill:rgb(0%,28.999329%,56.098938%);fill-opacity:1;" d="M 77.0625 77.054688 L 86.972656 77.054688 L 107.003906 54.339844 L 106.796875 25.636719 C 107.210938 24.914063 107.519531 24.605469 108.140625 24.089844 C 109.070313 23.570313 109.6875 23.46875 110.722656 23.570313 C 111.960938 23.570313 112.683594 23.882813 113.714844 24.605469 C 114.542969 25.222656 114.953125 25.84375 115.367188 26.878906 C 115.882813 28.21875 115.574219 29.25 115.058594 30.695313 C 114.542969 32.140625 113.921875 32.863281 112.992188 34 C 112.0625 35.136719 110.929688 35.34375 110.308594 36.683594 C 109.171875 38.855469 109.277344 41.125 110.824219 42.984375 C 112.167969 44.429688 113.714844 44.945313 115.679688 44.738281 C 117.328125 44.636719 118.570313 44.324219 119.496094 42.984375 C 120.324219 41.949219 120.839844 40.917969 120.425781 39.679688 C 120.015625 38.335938 117.949219 38.648438 117.742188 37.304688 C 117.640625 36.582031 117.847656 36.167969 118.050781 35.550781 C 118.671875 33.484375 120.324219 33.175781 121.355469 31.316406 C 122.390625 29.25 122.800781 27.910156 123.007813 25.636719 C 123.113281 23.777344 123.113281 22.644531 122.492188 20.886719 C 122.183594 19.753906 121.976563 19.132813 121.355469 18.203125 C 120.839844 17.480469 120.632813 17.066406 120.015625 16.550781 C 119.085938 15.621094 118.363281 15.105469 117.121094 14.589844 C 116.195313 14.175781 115.574219 13.96875 114.4375 13.96875 C 113.304688 13.96875 112.578125 14.074219 111.445313 14.589844 C 110.308594 15.105469 110.101563 15.933594 109.070313 16.65625 C 108.242188 17.273438 107.832031 17.585938 107.003906 18.203125 L 99.777344 11.90625 L 98.433594 11.90625 L 98.332031 50.726563 L 84.289063 67.453125 L 77.0625 67.453125 L 77.0625 77.054688 "/>
<path style=" stroke:none;fill-rule:evenodd;fill:rgb(0%,68.199158%,93.699646%);fill-opacity:1;" d="M 77.679688 115.363281 L 77.679688 104.832031 L 71.074219 98.324219 L 77.269531 91.71875 L 77.269531 80.050781 L 88.417969 80.050781 L 94.613281 72.71875 L 101.324219 79.429688 L 111.136719 79.429688 L 111.136719 89.652344 L 118.671875 97.085938 L 112.0625 104.003906 L 111.960938 114.742188 L 101.324219 114.742188 L 94.613281 121.660156 L 88.109375 115.363281 L 77.679688 115.363281 "/>
<path style=" stroke:none;fill-rule:evenodd;fill:rgb(0%,68.199158%,93.699646%);fill-opacity:1;" d="M 15.9375 119.90625 L 12.015625 121.351563 L 12.117188 121.765625 C 12.632813 121.765625 13.046875 121.558594 13.152344 122.589844 C 13.152344 123.828125 13.152344 126.101563 15.113281 127.441406 C 16.453125 128.269531 20.480469 128.578125 21.101563 123.726563 C 21.203125 122.796875 21.308594 121.867188 21.515625 120.9375 C 21.71875 118.769531 23.785156 118.769531 24.609375 119.285156 C 24.921875 119.492188 26.367188 121.039063 25.644531 122.796875 C 25.335938 123.621094 24.816406 124.34375 24.199219 124.859375 L 23.0625 125.6875 L 23.269531 126.101563 L 27.605469 124.550781 L 27.398438 124.140625 C 27.089844 124.140625 26.78125 124.34375 26.574219 123.414063 C 26.261719 120.9375 26.46875 120.730469 25.4375 119.078125 C 23.785156 116.394531 19.757813 116.808594 18.519531 119.90625 C 18.105469 120.835938 18.105469 121.96875 18.003906 123.105469 C 17.898438 124.550781 17.796875 125.480469 16.96875 125.996094 C 16.144531 126.617188 14.59375 126.617188 14.078125 124.964844 C 13.152344 122.589844 15.320313 121.039063 16.042969 120.214844 L 15.9375 119.90625 "/>
<path style=" stroke:none;fill-rule:evenodd;fill:rgb(0%,68.199158%,93.699646%);fill-opacity:1;" d="M 16.765625 110.714844 C 16.558594 108.546875 16.867188 108.136719 19.140625 107.101563 L 19.035156 106.792969 L 12.738281 107.722656 L 12.839844 108.136719 C 15.320313 108.339844 15.730469 108.652344 16.144531 110.820313 L 11.808594 111.542969 C 10.878906 111.644531 10.671875 111.542969 10.570313 110.820313 L 10.363281 109.269531 C 9.949219 106.277344 12.53125 105.65625 13.046875 105.449219 L 13.046875 105.035156 L 9.125 105.65625 L 10.777344 116.292969 L 11.1875 116.292969 C 11.085938 115.257813 11.601563 114.640625 12.53125 114.433594 L 21.410156 113.089844 C 22.441406 112.882813 23.164063 113.402344 23.269531 114.328125 L 23.679688 114.328125 L 21.925781 103.488281 L 17.898438 103.28125 L 18.003906 103.796875 C 20.996094 104.726563 22.03125 105.964844 22.234375 108.753906 C 22.339844 109.683594 22.03125 109.890625 21.101563 109.992188 L 16.765625 110.714844 "/>
<path style=" stroke:none;fill-rule:evenodd;fill:rgb(0%,68.199158%,93.699646%);fill-opacity:1;" d="M 17.796875 89.445313 C 20.273438 90.582031 21.410156 91.613281 21.203125 94.710938 C 21.203125 95.332031 20.6875 96.15625 19.859375 96.15625 L 10.777344 95.640625 C 9.742188 95.640625 9.226563 95.023438 9.226563 93.988281 L 8.8125 93.988281 L 8.503906 100.183594 L 8.917969 100.183594 C 8.917969 99.253906 9.640625 98.636719 10.570313 98.738281 L 19.550781 99.152344 C 20.585938 99.253906 21.203125 99.875 21.101563 100.804688 L 21.515625 100.90625 L 22.132813 89.960938 L 17.796875 88.929688 L 17.796875 89.445313 "/>
<path style=" stroke:none;fill-rule:evenodd;fill:rgb(0%,68.199158%,93.699646%);fill-opacity:1;" d="M 23.886719 80.878906 L 25.230469 81.804688 C 25.4375 80.980469 25.851563 80.464844 26.367188 80.671875 C 26.984375 80.980469 26.882813 82.011719 25.851563 83.457031 L 26.367188 83.972656 C 26.882813 83.5625 27.503906 82.632813 27.605469 81.496094 C 27.707031 81.1875 27.914063 80.566406 27.398438 79.742188 C 27.191406 79.328125 26.675781 78.707031 25.746094 79.222656 C 25.023438 79.636719 25.023438 80.152344 24.816406 80.773438 L 23.992188 80.257813 Z M 12.117188 72.308594 L 12.015625 72.71875 C 12.632813 73.339844 12.839844 73.441406 11.910156 74.886719 C 11.394531 75.609375 10.980469 76.4375 10.777344 77.261719 C 10.464844 78.503906 10.570313 79.945313 11.085938 81.394531 C 11.703125 83.25 13.5625 84.800781 15.730469 85.316406 C 18.003906 85.832031 20.378906 85.421875 21.824219 84.078125 C 22.960938 83.046875 23.679688 81.804688 23.992188 80.566406 C 24.199219 79.429688 24.199219 78.914063 24.199219 78.503906 C 24.09375 76.332031 23.164063 75.402344 22.648438 74.683594 L 22.03125 75.09375 C 22.441406 75.714844 23.476563 77.054688 23.371094 78.707031 C 23.371094 79.945313 23.0625 80.980469 22.441406 81.597656 C 21.925781 82.117188 21.203125 82.527344 20.171875 82.632813 C 19.34375 82.734375 17.898438 82.527344 16.558594 82.21875 C 15.214844 81.910156 13.871094 81.394531 13.152344 80.878906 C 12.015625 80.152344 11.496094 79.429688 11.292969 78.605469 C 11.1875 78.191406 11.1875 77.777344 11.292969 77.367188 C 11.394531 77.054688 11.496094 76.851563 11.601563 76.539063 C 12.839844 74.164063 15.523438 73.960938 16.246094 73.855469 L 16.351563 73.339844 L 12.117188 72.308594 "/>
<path style=" stroke:none;fill-rule:evenodd;fill:rgb(0%,68.199158%,93.699646%);fill-opacity:1;" d="M 20.480469 57.953125 C 19.550781 57.4375 19.242188 56.714844 19.65625 55.785156 L 19.242188 55.683594 L 17.589844 59.089844 L 18.003906 59.296875 C 18.414063 58.367188 19.242188 58.160156 20.066406 58.574219 L 26.367188 61.671875 C 29.671875 63.222656 28.429688 66.007813 27.503906 67.039063 C 26.46875 68.175781 24.921875 67.765625 23.679688 67.144531 L 17.382813 64.046875 C 16.558594 63.632813 16.246094 62.910156 16.660156 61.980469 L 16.246094 61.773438 L 13.5625 67.351563 L 13.976563 67.558594 C 14.390625 66.628906 15.214844 66.421875 16.144531 66.835938 L 22.855469 70.140625 C 24.09375 70.757813 26.675781 70.550781 28.328125 67.660156 C 29.773438 64.871094 29.671875 62.394531 26.675781 60.949219 L 20.480469 57.953125 "/>
<path style=" stroke:none;fill-rule:evenodd;fill:rgb(0%,68.199158%,93.699646%);fill-opacity:1;" d="M 29.878906 52.585938 L 29.773438 51.863281 L 35.761719 51.761719 C 36.382813 51.761719 36.484375 52.378906 35.761719 53.308594 L 36.070313 53.617188 L 39.996094 48.457031 L 39.683594 48.144531 C 39.375 48.558594 38.964844 48.660156 37.929688 48.660156 L 29.257813 48.867188 L 28.742188 45.359375 C 28.328125 42.777344 28.949219 42.054688 29.566406 41.332031 L 29.152344 41.023438 L 25.851563 45.460938 L 26.160156 45.667969 C 26.882813 44.84375 27.914063 44.53125 28.019531 45.667969 L 28.949219 51.863281 L 25.539063 49.28125 C 24.714844 48.660156 24.609375 47.835938 25.128906 47.113281 L 24.816406 46.804688 L 21.101563 51.761719 L 21.410156 51.964844 C 22.03125 51.242188 22.855469 51.140625 23.679688 51.761719 L 30.804688 57.128906 C 31.632813 57.746094 31.839844 58.574219 31.21875 59.398438 L 31.527344 59.605469 L 35.246094 54.652344 L 34.9375 54.445313 C 34.316406 55.167969 33.492188 55.269531 32.664063 54.652344 L 29.878906 52.585938 "/>
<path style=" stroke:none;fill-rule:evenodd;fill:rgb(0%,68.199158%,93.699646%);fill-opacity:1;" d="M 46.191406 36.582031 C 47.222656 39.164063 47.222656 40.710938 45.054688 42.675781 C 44.433594 43.191406 43.507813 43.394531 42.886719 42.777344 L 36.898438 35.960938 C 36.175781 35.238281 36.175781 34.414063 37 33.796875 L 36.691406 33.484375 L 32.042969 37.613281 L 32.355469 37.925781 C 33.078125 37.203125 33.902344 37.304688 34.625 38.027344 L 40.613281 44.738281 C 41.335938 45.460938 41.234375 46.285156 40.511719 47.011719 L 40.820313 47.320313 L 48.976563 39.988281 L 46.601563 36.167969 L 46.191406 36.582031 "/>
<path style=" stroke:none;fill-rule:evenodd;fill:rgb(0%,68.199158%,93.699646%);fill-opacity:1;" d="M 54.96875 22.746094 C 54.449219 21.921875 54.65625 21.09375 55.484375 20.578125 L 55.277344 20.269531 L 51.972656 22.230469 L 52.179688 22.539063 C 53.109375 22.023438 53.832031 22.332031 54.347656 23.160156 L 57.960938 29.148438 C 59.820313 32.347656 57.238281 34 56 34.3125 C 54.449219 34.621094 53.417969 33.484375 52.695313 32.246094 L 49.082031 26.359375 C 48.566406 25.429688 48.773438 24.605469 49.597656 24.089844 L 49.390625 23.777344 L 44.125 26.980469 L 44.332031 27.289063 C 45.15625 26.773438 45.984375 27.082031 46.5 27.910156 L 50.421875 34.414063 C 51.148438 35.550781 53.417969 36.789063 56.308594 35.238281 C 59.097656 33.796875 60.335938 31.625 58.582031 28.734375 L 54.96875 22.746094 "/>
<path style=" stroke:none;fill-rule:evenodd;fill:rgb(0%,68.199158%,93.699646%);fill-opacity:1;" d="M 133.4375 34.515625 C 134.367188 35.136719 135.296875 35.445313 136.945313 35.238281 C 138.394531 35.035156 140.253906 33.070313 139.320313 31.007813 C 139.011719 30.285156 138.496094 29.664063 137.980469 29.046875 C 139.011719 29.355469 140.871094 29.664063 141.902344 27.910156 C 142.625 26.773438 142.214844 25.429688 141.386719 24.503906 C 140.664063 23.777344 139.117188 22.851563 138.289063 22.332031 L 134.367188 19.960938 L 134.160156 20.269531 C 134.984375 20.785156 135.089844 21.609375 134.675781 22.4375 L 130.03125 30.179688 C 129.511719 31.007813 128.6875 31.214844 127.859375 30.800781 L 127.65625 31.109375 Z M 137.464844 23.570313 C 137.878906 22.953125 138.1875 22.953125 138.703125 23.160156 C 140.253906 24.089844 140.046875 24.914063 139.632813 25.742188 L 138.804688 27.082031 C 137.671875 29.148438 135.8125 27.703125 135.296875 27.394531 Z M 134.882813 27.910156 C 135.191406 28.011719 135.914063 28.425781 136.535156 28.941406 C 136.945313 29.355469 137.257813 30.488281 136.636719 31.523438 L 135.8125 33.070313 C 135.089844 34.207031 133.851563 34.3125 132.609375 33.484375 C 131.886719 32.96875 132.09375 32.554688 132.714844 31.625 L 134.882813 27.910156 "/>
<path style=" stroke:none;fill-rule:evenodd;fill:rgb(0%,68.199158%,93.699646%);fill-opacity:1;" d="M 146.757813 36.683594 C 148.304688 38.234375 148.304688 38.648438 147.167969 40.816406 L 147.480469 41.125 L 151.710938 36.375 L 151.402344 36.167969 C 149.339844 37.511719 148.820313 37.511719 147.167969 36.167969 L 150.058594 32.863281 C 150.78125 32.140625 150.988281 32.140625 151.507813 32.554688 L 152.640625 33.691406 C 154.808594 35.757813 153.261719 37.820313 152.949219 38.441406 L 153.261719 38.648438 L 155.84375 35.757813 L 147.789063 28.527344 L 147.582031 28.839844 C 148.304688 29.457031 148.304688 30.285156 147.6875 31.007813 L 141.59375 37.71875 C 140.972656 38.441406 140.148438 38.542969 139.425781 37.925781 L 139.117188 38.234375 L 147.273438 45.460938 L 150.472656 43.191406 L 150.164063 42.777344 C 147.273438 43.914063 145.621094 43.601563 143.761719 41.539063 C 143.039063 40.816406 143.144531 40.609375 143.761719 39.886719 L 146.757813 36.683594 "/>
<path style=" stroke:none;fill-rule:evenodd;fill:rgb(0%,68.199158%,93.699646%);fill-opacity:1;" d="M 159.457031 53.515625 C 156.769531 54.238281 155.222656 54.136719 153.363281 51.761719 C 152.949219 51.242188 152.847656 50.210938 153.570313 49.695313 L 160.796875 44.222656 C 161.519531 43.707031 162.449219 43.707031 162.96875 44.53125 L 163.277344 44.324219 L 159.558594 39.371094 L 159.25 39.574219 C 159.867188 40.402344 159.765625 41.226563 158.941406 41.847656 L 151.710938 47.21875 C 150.988281 47.835938 150.164063 47.734375 149.542969 47.011719 L 149.234375 47.21875 L 155.738281 55.992188 L 159.765625 53.929688 L 159.457031 53.515625 "/>
<path style=" stroke:none;fill-rule:evenodd;fill:rgb(0%,68.199158%,93.699646%);fill-opacity:1;" d="M 165.03125 59.398438 C 165.859375 61.363281 165.753906 61.878906 163.792969 63.425781 L 164 63.839844 L 169.78125 61.050781 L 169.574219 60.640625 C 167.097656 61.15625 166.683594 61.050781 165.652344 59.089844 L 169.574219 57.128906 C 170.398438 56.714844 170.605469 56.820313 170.917969 57.4375 L 171.640625 58.882813 C 172.878906 61.671875 170.605469 62.910156 170.089844 63.324219 L 170.296875 63.738281 L 173.808594 61.980469 L 169.058594 52.277344 L 168.746094 52.484375 C 169.160156 53.308594 168.851563 54.136719 167.921875 54.546875 L 159.867188 58.472656 C 159.042969 58.882813 158.21875 58.679688 157.699219 57.746094 L 157.390625 57.953125 L 162.140625 67.765625 L 166.0625 66.835938 L 165.859375 66.421875 C 162.761719 66.316406 161.417969 65.390625 160.386719 62.808594 C 160.074219 61.980469 160.28125 61.671875 161.109375 61.257813 L 165.03125 59.398438 "/>
<path style=" stroke:none;fill-rule:evenodd;fill:rgb(0%,68.199158%,93.699646%);fill-opacity:1;" d="M 176.285156 66.9375 L 175.871094 67.039063 C 176.183594 68.074219 175.664063 68.796875 174.738281 69.003906 L 165.960938 71.171875 C 165.03125 71.378906 164.308594 70.964844 164 70.035156 L 163.585938 70.140625 L 165.136719 76.332031 C 165.546875 77.675781 166.269531 78.914063 167.613281 79.84375 C 169.78125 81.597656 173.601563 81.289063 175.5625 79.742188 C 178.144531 77.882813 178.351563 75.300781 177.730469 72.71875 Z M 175.664063 71.894531 C 176.699219 71.585938 176.800781 71.6875 177.007813 72.410156 C 177.214844 73.441406 177.523438 74.164063 176.597656 75.402344 C 175.253906 77.261719 171.226563 78.296875 168.851563 78.089844 C 167.921875 77.984375 166.167969 77.882813 165.546875 75.300781 C 165.339844 74.476563 165.445313 74.476563 166.476563 74.164063 L 175.664063 71.894531 "/>
<path style=" stroke:none;fill-rule:evenodd;fill:rgb(0%,68.199158%,93.699646%);fill-opacity:1;" d="M 178.558594 86.863281 C 179.589844 86.761719 180.3125 87.175781 180.414063 88.414063 L 180.828125 88.414063 L 179.796875 81.804688 L 179.382813 81.804688 C 179.589844 83.046875 179.074219 83.769531 178.144531 83.871094 L 169.265625 85.316406 C 168.230469 85.421875 167.507813 85.007813 167.40625 83.769531 L 166.992188 83.769531 L 168.027344 90.375 L 168.4375 90.375 C 168.230469 89.136719 168.746094 88.414063 169.679688 88.3125 Z M 183.308594 85.625 C 183.925781 85.625 184.339844 85.007813 184.234375 84.488281 C 184.132813 83.871094 183.617188 83.457031 182.996094 83.5625 C 182.378906 83.664063 182.066406 84.179688 182.171875 84.800781 C 182.273438 85.316406 182.789063 85.730469 183.308594 85.625 "/>
<path style=" stroke:none;fill-rule:evenodd;fill:rgb(0%,68.199158%,93.699646%);fill-opacity:1;" d="M 173.808594 100.183594 L 179.488281 104.109375 C 180.003906 104.417969 180.414063 105.140625 180.414063 105.65625 L 180.828125 105.65625 L 181.035156 101.421875 L 180.621094 101.421875 C 180.519531 102.664063 180.105469 103.488281 178.558594 102.457031 L 174.632813 99.773438 L 179.796875 97.398438 C 180.621094 96.984375 180.828125 97.808594 180.726563 98.84375 L 181.140625 98.945313 L 181.449219 92.648438 L 181.140625 92.648438 C 181.035156 92.957031 180.933594 93.371094 180.105469 93.78125 L 173.289063 97.085938 L 170.296875 96.984375 C 169.265625 96.878906 168.644531 96.261719 168.746094 95.125 L 168.335938 95.125 L 168.027344 101.628906 L 168.4375 101.628906 C 168.4375 100.492188 169.160156 99.976563 170.089844 99.976563 L 173.808594 100.183594 "/>
<path style=" stroke:none;fill-rule:evenodd;fill:rgb(0%,68.199158%,93.699646%);fill-opacity:1;" d="M 172.878906 112.675781 C 172.257813 114.742188 171.847656 115.050781 169.367188 115.050781 L 169.265625 115.363281 L 175.460938 116.910156 L 175.5625 116.601563 C 173.289063 115.363281 173.085938 114.949219 173.496094 112.78125 L 177.835938 113.917969 C 178.765625 114.121094 178.867188 114.328125 178.660156 114.949219 L 178.246094 116.496094 C 177.421875 119.390625 174.945313 118.976563 174.222656 118.976563 L 174.117188 119.390625 L 177.9375 120.320313 L 180.621094 109.785156 L 180.210938 109.683594 C 180.003906 110.714844 179.175781 111.128906 178.246094 110.820313 L 169.574219 108.652344 C 168.542969 108.445313 168.128906 107.722656 168.335938 106.792969 L 167.921875 106.6875 L 165.339844 117.324219 L 168.953125 119.078125 L 169.058594 118.5625 C 166.683594 116.601563 166.269531 114.949219 167.097656 112.367188 C 167.40625 111.4375 167.714844 111.335938 168.644531 111.644531 L 172.878906 112.675781 "/>
<path style=" stroke:none;fill-rule:evenodd;fill:rgb(0%,68.199158%,93.699646%);fill-opacity:1;" d="M 170.089844 130.746094 L 174.015625 132.089844 L 174.222656 131.777344 C 173.910156 131.367188 173.394531 131.261719 174.015625 130.4375 C 174.738281 129.507813 176.285156 127.855469 175.5625 125.480469 C 175.148438 124.035156 172.257813 121.144531 168.644531 124.449219 C 167.921875 125.066406 167.304688 125.6875 166.578125 126.304688 C 164.929688 127.855469 163.378906 126.511719 163.070313 125.585938 C 162.96875 125.171875 162.96875 123.105469 164.617188 122.28125 C 165.339844 121.867188 166.167969 121.558594 166.992188 121.558594 L 168.4375 121.660156 L 168.542969 121.246094 L 164.203125 119.699219 L 164 120.113281 C 164.308594 120.320313 164.722656 120.421875 164.203125 121.144531 C 162.863281 123.210938 162.65625 123.3125 162.347656 125.273438 C 161.933594 128.371094 165.238281 130.644531 168.128906 129.09375 C 169.058594 128.578125 169.78125 127.753906 170.605469 126.925781 C 171.640625 125.894531 172.363281 125.273438 173.289063 125.378906 C 174.324219 125.480469 175.460938 126.410156 174.839844 128.0625 C 174.015625 130.4375 171.328125 130.230469 170.195313 130.332031 L 170.089844 130.746094 "/>
<path style=" stroke:none;fill-rule:evenodd;fill:rgb(0%,68.199158%,93.699646%);fill-opacity:1;" d="M 167.40625 139.730469 C 168.230469 140.246094 168.4375 140.96875 167.820313 142.105469 L 168.230469 142.308594 L 171.640625 136.527344 L 171.328125 136.324219 C 170.605469 137.457031 169.78125 137.5625 168.953125 137.042969 L 161.3125 132.503906 C 160.386719 131.984375 160.179688 131.160156 160.796875 130.023438 L 160.488281 129.816406 L 157.082031 135.597656 L 157.390625 135.804688 C 158.011719 134.773438 158.835938 134.566406 159.664063 135.082031 Z M 171.847656 141.792969 C 172.363281 142.105469 172.980469 141.898438 173.289063 141.484375 C 173.601563 140.96875 173.394531 140.347656 172.878906 140.039063 C 172.363281 139.730469 171.742188 139.832031 171.433594 140.347656 C 171.121094 140.863281 171.328125 141.484375 171.847656 141.792969 "/>
<path style=" stroke:none;fill-rule:evenodd;fill:rgb(0%,68.199158%,93.699646%);fill-opacity:1;" d="M 31.632813 143.757813 C 32.769531 143.03125 32.972656 141.484375 32.148438 140.453125 C 31.324219 139.417969 29.878906 139.214844 28.84375 139.933594 C 27.707031 140.761719 27.503906 142.308594 28.328125 143.34375 C 29.152344 144.375 30.597656 144.582031 31.632813 143.757813 "/>
<path style=" stroke:none;fill-rule:evenodd;fill:rgb(0%,68.199158%,93.699646%);fill-opacity:1;" d="M 39.890625 153.566406 L 40.71875 153.566406 L 40.203125 159.65625 C 40.203125 160.171875 39.480469 160.171875 38.652344 159.347656 L 38.34375 159.65625 L 43.195313 163.992188 L 43.402344 163.683594 C 43.09375 163.375 42.988281 163.0625 43.09375 162.03125 L 43.609375 153.359375 L 47.222656 153.152344 C 49.804688 152.945313 50.421875 153.566406 51.148438 154.289063 L 51.457031 153.976563 L 47.328125 150.261719 L 47.121094 150.570313 C 47.945313 151.292969 48.152344 152.324219 47.015625 152.429688 L 40.71875 152.738281 L 43.507813 149.539063 C 44.226563 148.816406 45.054688 148.710938 45.777344 149.433594 L 46.085938 149.125 L 41.441406 144.996094 L 41.234375 145.304688 C 41.957031 145.925781 41.957031 146.75 41.335938 147.578125 L 35.246094 154.183594 C 34.625 154.90625 33.800781 155.011719 33.078125 154.390625 L 32.769531 154.699219 L 37.3125 158.832031 L 37.621094 158.519531 C 36.898438 157.796875 36.898438 156.972656 37.519531 156.25 L 39.890625 153.566406 "/>
<path style=" stroke:none;fill-rule:evenodd;fill:rgb(0%,68.199158%,93.699646%);fill-opacity:1;" d="M 61.160156 167.710938 C 62.296875 165.75 62.605469 163.375 61.675781 161.515625 C 60.957031 160.171875 60.027344 159.140625 58.992188 158.417969 C 57.859375 157.796875 56.515625 157.488281 54.96875 157.488281 C 53.003906 157.589844 50.941406 158.933594 49.804688 160.894531 C 48.667969 162.753906 48.359375 165.230469 49.289063 166.988281 C 49.90625 168.328125 50.835938 169.363281 51.972656 170.085938 C 53.109375 170.703125 54.449219 171.117188 55.894531 171.015625 C 57.960938 171.015625 59.921875 169.570313 61.160156 167.710938 Z M 52.28125 169.671875 C 51.972656 169.464844 51.664063 169.15625 51.351563 168.847656 C 50.941406 168.121094 50.835938 167.195313 51.148438 165.851563 C 51.25 165.027344 51.867188 163.785156 52.59375 162.546875 C 53.316406 161.308594 54.140625 160.277344 54.863281 159.65625 C 55.894531 158.832031 56.722656 158.417969 57.546875 158.519531 C 58.0625 158.519531 58.375 158.726563 58.683594 158.933594 C 58.992188 159.035156 59.304688 159.347656 59.511719 159.761719 C 60.027344 160.484375 60.128906 161.308594 59.820313 162.652344 C 59.613281 163.476563 59.097656 164.820313 58.375 166.058594 C 57.652344 167.195313 56.722656 168.328125 56.101563 168.847656 C 55.070313 169.773438 54.242188 170.085938 53.417969 169.980469 C 52.902344 169.980469 52.488281 169.773438 52.28125 169.671875 "/>
<path style=" stroke:none;fill-rule:evenodd;fill:rgb(0%,68.199158%,93.699646%);fill-opacity:1;" d="M 72.414063 178.859375 L 76.234375 168.328125 C 76.648438 167.402344 77.371094 166.988281 78.300781 167.296875 L 78.40625 166.882813 L 74.789063 165.644531 L 74.6875 165.957031 C 75.617188 166.367188 75.925781 167.089844 75.617188 168.019531 L 73.449219 173.90625 L 70.042969 163.890625 L 66.222656 162.445313 L 66.117188 162.855469 C 66.53125 163.0625 66.632813 163.476563 66.738281 163.890625 L 67.152344 164.921875 L 64.050781 173.390625 C 63.742188 174.320313 63.019531 174.730469 62.089844 174.421875 L 61.882813 174.835938 L 65.496094 176.074219 L 65.601563 175.765625 C 64.671875 175.351563 64.363281 174.628906 64.777344 173.699219 L 67.5625 166.058594 L 71.898438 178.65625 L 72.414063 178.859375 "/>
<path style=" stroke:none;fill-rule:evenodd;fill:rgb(0%,68.199158%,93.699646%);fill-opacity:1;" d="M 86.457031 175.246094 L 90.898438 170.085938 C 91.308594 169.570313 92.035156 169.257813 92.550781 169.363281 L 92.550781 168.949219 L 88.417969 168.226563 L 88.316406 168.640625 C 89.554688 168.847656 90.277344 169.464844 89.144531 170.808594 L 86.042969 174.421875 L 84.1875 169.050781 C 83.980469 168.226563 84.804688 168.121094 85.839844 168.226563 L 85.941406 167.917969 L 79.746094 166.882813 L 79.644531 167.296875 C 80.054688 167.402344 80.46875 167.503906 80.78125 168.433594 L 83.257813 175.558594 L 82.84375 178.550781 C 82.636719 179.480469 82.019531 179.996094 80.882813 179.894531 L 80.78125 180.203125 L 87.285156 181.234375 L 87.285156 180.824219 C 86.148438 180.71875 85.632813 179.996094 85.839844 178.964844 L 86.457031 175.246094 "/>
<path style=" stroke:none;fill-rule:evenodd;fill:rgb(0%,68.199158%,93.699646%);fill-opacity:1;" d="M 98.433594 168.328125 L 94.304688 179.894531 C 93.996094 181.03125 93.480469 181.234375 92.964844 181.234375 L 92.964844 181.648438 L 96.78125 181.441406 L 96.78125 181.03125 C 95.441406 181.132813 95.027344 180.511719 95.335938 179.480469 L 95.957031 177.726563 L 100.292969 177.519531 L 101.324219 179.585938 C 101.738281 180.617188 100.601563 180.824219 99.777344 180.824219 L 99.777344 181.234375 L 105.867188 180.925781 L 105.867188 180.511719 C 105.558594 180.617188 104.941406 180.617188 104.421875 179.789063 L 98.953125 168.226563 Z M 96.164063 177.003906 L 97.710938 172.148438 L 99.984375 176.796875 Z M 96.164063 177.003906 "/>
<path style=" stroke:none;fill-rule:evenodd;fill:rgb(0%,68.199158%,93.699646%);fill-opacity:1;" d="M 117.121094 172.5625 C 116.8125 171.324219 115.472656 170.601563 114.230469 170.910156 C 112.890625 171.21875 112.0625 172.460938 112.476563 173.800781 C 112.785156 175.039063 114.027344 175.867188 115.367188 175.558594 C 116.605469 175.144531 117.433594 173.90625 117.121094 172.5625 "/>
<path style=" stroke:none;fill-rule:evenodd;fill:rgb(0%,68.199158%,93.699646%);fill-opacity:1;" d="M 126.828125 160.792969 L 126.621094 160.894531 L 123.214844 164.714844 L 123.316406 165.128906 L 124.144531 164.40625 C 124.660156 163.992188 125.175781 163.890625 125.488281 164.613281 L 129.203125 172.253906 C 129.617188 172.976563 129.511719 173.492188 128.789063 173.90625 L 127.859375 174.523438 L 127.964844 174.835938 L 134.675781 171.632813 L 134.46875 171.324219 L 133.4375 171.632813 C 132.609375 171.945313 132.199219 171.738281 131.886719 171.015625 L 126.828125 160.792969 "/>
<path style=" stroke:none;fill-rule:evenodd;fill:rgb(0%,68.199158%,93.699646%);fill-opacity:1;" d="M 137.464844 170.496094 C 139.941406 168.640625 141.078125 166.988281 141.59375 164.507813 C 142.109375 161.929688 140.664063 157.902344 137.152344 156.558594 C 134.574219 155.628906 132.300781 157.796875 131.992188 159.863281 C 131.785156 161.824219 133.230469 164.613281 135.605469 164.820313 C 137.152344 165.027344 138.289063 163.992188 138.910156 163.0625 C 139.320313 164.613281 139.632813 165.230469 139.320313 166.882813 C 138.910156 168.640625 137.464844 169.773438 137.257813 170.085938 Z M 133.644531 158.417969 C 133.644531 157.589844 134.46875 156.972656 135.191406 157.386719 C 136.742188 158.210938 137.980469 160.792969 138.703125 162.445313 C 138.082031 163.269531 137.359375 163.582031 136.636719 163.167969 C 135.914063 162.652344 133.746094 159.449219 133.644531 158.417969 "/>
<path style=" stroke:none;fill-rule:evenodd;fill:rgb(0%,68.199158%,93.699646%);fill-opacity:1;" d="M 145.515625 156.972656 C 145.105469 157.902344 144.796875 158.210938 144.796875 159.140625 C 144.691406 161 146.34375 162.238281 147.582031 162.339844 C 149.441406 162.445313 151.917969 160.484375 152.332031 158.316406 C 152.847656 155.835938 151.402344 153.875 148.097656 153.976563 L 146.652344 153.976563 C 146.964844 153.253906 147.480469 152.222656 147.167969 151.398438 C 147.066406 150.570313 146.445313 149.640625 145.3125 149.433594 C 142.9375 149.125 139.425781 152.324219 140.664063 155.113281 C 141.492188 157.179688 143.347656 157.179688 143.554688 157.179688 Z M 143.863281 154.289063 C 141.902344 154.082031 141.386719 152.429688 141.902344 151.5 C 142.316406 150.984375 143.453125 150.261719 144.898438 151.601563 C 145.515625 152.324219 146.035156 152.945313 145.929688 154.082031 C 145.414063 154.289063 144.277344 154.289063 143.863281 154.289063 Z M 149.75 160.894531 C 149.132813 161.101563 148.203125 160.894531 147.273438 159.761719 C 146.445313 158.726563 146.136719 157.902344 146.136719 156.867188 C 147.890625 156.664063 148.71875 156.558594 149.855469 157.386719 C 151.507813 158.625 151.195313 160.378906 149.75 160.894531 "/>
<path style=" stroke:none;fill-rule:evenodd;fill:rgb(0%,68.199158%,93.699646%);fill-opacity:1;" d="M 156.152344 155.941406 C 158.011719 153.359375 158.527344 151.5 158.320313 149.023438 C 158.113281 146.335938 155.53125 142.929688 151.816406 142.722656 C 149.027344 142.515625 147.480469 145.304688 147.789063 147.265625 C 148.203125 149.332031 150.472656 151.5 152.746094 151.085938 C 154.292969 150.777344 155.015625 149.433594 155.324219 148.402344 C 156.253906 149.746094 156.667969 150.261719 156.875 151.914063 C 156.976563 153.667969 156.050781 155.21875 155.84375 155.628906 Z M 149.027344 145.40625 C 148.71875 144.683594 149.339844 143.859375 150.164063 144.066406 C 151.816406 144.375 153.878906 146.441406 155.015625 147.78125 C 154.707031 148.816406 154.085938 149.332031 153.261719 149.125 C 152.332031 148.816406 149.339844 146.441406 149.027344 145.40625 "/>
</g>
</svg>
